# Blender v2.79 (sub 0) OBJ File: 'wheel.blend'
# www.blender.org
mtllib arrow.mtl
o Circle.003
v 0.131901 -0.019469 0.097876
v 0.131901 -0.055442 0.082975
v 0.131901 -0.082975 0.055442
v 0.131901 -0.097876 0.019469
v 0.131901 -0.097876 -0.019468
v 0.131901 -0.082975 -0.055442
v 0.131901 -0.055442 -0.082975
v 0.131901 -0.019469 -0.097875
v 0.131901 0.019469 -0.097875
v 0.131901 0.055442 -0.082974
v 0.131901 0.082975 -0.055442
v 0.131901 0.097875 -0.019468
v 0.131901 0.097875 0.019469
v 0.131901 0.082975 0.055442
v 0.131901 0.055442 0.082975
v 0.131901 0.019468 0.097876
v 0.168983 -0.019469 0.103749
v 0.173588 -0.055442 0.089578
v 0.182096 -0.082975 0.063392
v 0.193212 -0.097876 0.029180
v 0.205244 -0.097876 -0.007852
v 0.216361 -0.082975 -0.042065
v 0.224869 -0.055442 -0.068250
v 0.229473 -0.019469 -0.082421
v 0.229473 0.019469 -0.082421
v 0.224869 0.055442 -0.068250
v 0.216361 0.082975 -0.042065
v 0.205244 0.097875 -0.007852
v 0.193212 0.097875 0.029180
v 0.182096 0.082975 0.063392
v 0.173588 0.055442 0.089578
v 0.168983 0.019468 0.103749
v 0.202435 -0.019469 0.120794
v 0.211194 -0.055442 0.108739
v 0.227377 -0.082975 0.086464
v 0.248522 -0.097876 0.057361
v 0.271408 -0.097876 0.025860
v 0.292553 -0.082975 -0.003243
v 0.308736 -0.055442 -0.025517
v 0.317495 -0.019469 -0.037572
v 0.317495 0.019469 -0.037572
v 0.308736 0.055442 -0.025517
v 0.292553 0.082975 -0.003243
v 0.271408 0.097875 0.025860
v 0.248522 0.097875 0.057361
v 0.227377 0.082975 0.086464
v 0.211194 0.055442 0.108739
v 0.202435 0.019468 0.120794
v 0.228983 -0.019469 0.147342
v 0.241038 -0.055442 0.138583
v 0.263312 -0.082975 0.122400
v 0.292416 -0.097876 0.101255
v 0.323916 -0.097876 0.078368
v 0.353020 -0.082975 0.057224
v 0.375294 -0.055442 0.041040
v 0.387349 -0.019469 0.032282
v 0.387349 0.019469 0.032282
v 0.375294 0.055442 0.041040
v 0.353020 0.082975 0.057224
v 0.323916 0.097875 0.078368
v 0.292416 0.097875 0.101255
v 0.263312 0.082975 0.122400
v 0.241038 0.055442 0.138583
v 0.228983 0.019468 0.147342
v 0.246028 -0.019469 0.180794
v 0.260199 -0.055442 0.176189
v 0.286384 -0.082975 0.167681
v 0.320597 -0.097876 0.156565
v 0.357629 -0.097876 0.144532
v 0.391841 -0.082975 0.133416
v 0.418027 -0.055442 0.124908
v 0.432198 -0.019469 0.120303
v 0.432198 0.019469 0.120303
v 0.418027 0.055442 0.124908
v 0.391841 0.082975 0.133416
v 0.357629 0.097875 0.144532
v 0.320597 0.097875 0.156565
v 0.286384 0.082975 0.167681
v 0.260199 0.055442 0.176189
v 0.246028 0.019468 0.180794
v 0.251901 -0.019469 0.217876
v 0.266802 -0.055442 0.217876
v 0.294335 -0.082975 0.217876
v 0.330308 -0.097876 0.217876
v 0.369245 -0.097876 0.217876
v 0.405219 -0.082975 0.217876
v 0.432751 -0.055442 0.217876
v 0.447652 -0.019469 0.217876
v 0.447652 0.019469 0.217876
v 0.432751 0.055442 0.217876
v 0.405218 0.082975 0.217876
v 0.369245 0.097875 0.217876
v 0.330308 0.097875 0.217876
v 0.294334 0.082975 0.217876
v 0.266802 0.055442 0.217876
v 0.251901 0.019468 0.217876
v 0.251901 -0.019469 1.080247
v 0.266802 -0.055442 1.080247
v 0.294335 -0.082975 1.080247
v 0.330308 -0.097876 1.080247
v 0.369245 -0.097876 1.080247
v 0.405219 -0.082975 1.080247
v 0.432751 -0.055442 1.080247
v 0.447652 -0.019469 1.080247
v 0.447652 0.019468 1.080247
v 0.432751 0.055442 1.080247
v 0.405218 0.082975 1.080247
v 0.369245 0.097875 1.080247
v 0.330308 0.097875 1.080247
v 0.294334 0.082975 1.080247
v 0.266802 0.055442 1.080247
v 0.251901 0.019468 1.080247
v 0.182548 -0.033264 1.080247
v 0.208007 -0.094728 1.080247
v 0.255049 -0.141770 1.080247
v 0.316513 -0.167229 1.080247
v 0.383040 -0.167229 1.080247
v 0.444504 -0.141770 1.080247
v 0.491546 -0.094728 1.080247
v 0.517005 -0.033264 1.080247
v 0.517005 0.033264 1.080247
v 0.491546 0.094727 1.080247
v 0.444504 0.141770 1.080247
v 0.383040 0.167229 1.080247
v 0.316512 0.167229 1.080248
v 0.255049 0.141769 1.080247
v 0.208007 0.094727 1.080247
v 0.182548 0.033263 1.080247
v 0.349776 -0.000000 1.483763
v -0.131901 -0.019469 0.097876
v -0.131901 -0.055442 0.082975
v -0.131901 -0.082975 0.055442
v -0.131901 -0.097876 0.019469
v -0.131901 -0.097876 -0.019468
v -0.131901 -0.082975 -0.055442
v -0.131901 -0.055442 -0.082975
v -0.131901 -0.019469 -0.097875
v -0.131901 0.019469 -0.097875
v -0.131901 0.055442 -0.082974
v -0.131901 0.082975 -0.055442
v -0.131901 0.097875 -0.019468
v -0.131901 0.097875 0.019469
v -0.131901 0.082975 0.055442
v -0.131901 0.055442 0.082975
v -0.131901 0.019468 0.097876
v -0.168983 -0.019469 0.103749
v -0.173588 -0.055442 0.089578
v -0.182096 -0.082975 0.063392
v -0.193212 -0.097876 0.029180
v -0.205244 -0.097876 -0.007852
v -0.216361 -0.082975 -0.042065
v -0.224869 -0.055442 -0.068250
v -0.229473 -0.019469 -0.082421
v -0.229473 0.019469 -0.082421
v -0.224869 0.055442 -0.068250
v -0.216361 0.082975 -0.042065
v -0.205244 0.097875 -0.007852
v -0.193212 0.097875 0.029180
v -0.182096 0.082975 0.063392
v -0.173588 0.055442 0.089578
v -0.168983 0.019468 0.103749
v -0.202435 -0.019469 0.120794
v -0.211194 -0.055442 0.108739
v -0.227377 -0.082975 0.086464
v -0.248522 -0.097876 0.057361
v -0.271408 -0.097876 0.025860
v -0.292553 -0.082975 -0.003243
v -0.308736 -0.055442 -0.025517
v -0.317495 -0.019469 -0.037572
v -0.317495 0.019469 -0.037572
v -0.308736 0.055442 -0.025517
v -0.292553 0.082975 -0.003243
v -0.271408 0.097875 0.025860
v -0.248522 0.097875 0.057361
v -0.227377 0.082975 0.086464
v -0.211194 0.055442 0.108739
v -0.202435 0.019468 0.120794
v -0.228983 -0.019469 0.147342
v -0.241038 -0.055442 0.138583
v -0.263312 -0.082975 0.122400
v -0.292416 -0.097876 0.101255
v -0.323916 -0.097876 0.078368
v -0.353020 -0.082975 0.057224
v -0.375294 -0.055442 0.041040
v -0.387349 -0.019469 0.032282
v -0.387349 0.019469 0.032282
v -0.375294 0.055442 0.041040
v -0.353020 0.082975 0.057224
v -0.323916 0.097875 0.078368
v -0.292416 0.097875 0.101255
v -0.263312 0.082975 0.122400
v -0.241038 0.055442 0.138583
v -0.228983 0.019468 0.147342
v -0.246028 -0.019469 0.180794
v -0.260199 -0.055442 0.176189
v -0.286384 -0.082975 0.167681
v -0.320597 -0.097876 0.156565
v -0.357629 -0.097876 0.144532
v -0.391841 -0.082975 0.133416
v -0.418027 -0.055442 0.124908
v -0.432198 -0.019469 0.120303
v -0.432198 0.019469 0.120303
v -0.418027 0.055442 0.124908
v -0.391841 0.082975 0.133416
v -0.357629 0.097875 0.144532
v -0.320597 0.097875 0.156565
v -0.286384 0.082975 0.167681
v -0.260199 0.055442 0.176189
v -0.246028 0.019468 0.180794
v -0.251901 -0.019469 0.217876
v -0.266802 -0.055442 0.217876
v -0.294335 -0.082975 0.217876
v -0.330308 -0.097876 0.217876
v -0.369245 -0.097876 0.217876
v -0.405219 -0.082975 0.217876
v -0.432751 -0.055442 0.217876
v -0.447652 -0.019469 0.217876
v -0.447652 0.019469 0.217876
v -0.432751 0.055442 0.217876
v -0.405218 0.082975 0.217876
v -0.369245 0.097875 0.217876
v -0.330308 0.097875 0.217876
v -0.294334 0.082975 0.217876
v -0.266802 0.055442 0.217876
v -0.251901 0.019468 0.217876
v -0.251901 -0.019469 1.080247
v -0.266802 -0.055442 1.080247
v -0.294335 -0.082975 1.080247
v -0.330308 -0.097876 1.080247
v -0.369245 -0.097876 1.080247
v -0.405219 -0.082975 1.080247
v -0.432751 -0.055442 1.080247
v -0.447652 -0.019469 1.080247
v -0.447652 0.019468 1.080247
v -0.432751 0.055442 1.080247
v -0.405218 0.082975 1.080247
v -0.369245 0.097875 1.080247
v -0.330308 0.097875 1.080247
v -0.294334 0.082975 1.080247
v -0.266802 0.055442 1.080247
v -0.251901 0.019468 1.080247
v -0.182548 -0.033264 1.080247
v -0.208007 -0.094728 1.080247
v -0.255049 -0.141770 1.080247
v -0.316513 -0.167229 1.080247
v -0.383040 -0.167229 1.080247
v -0.444504 -0.141770 1.080247
v -0.491546 -0.094728 1.080247
v -0.517005 -0.033264 1.080247
v -0.517005 0.033264 1.080247
v -0.491546 0.094727 1.080247
v -0.444504 0.141770 1.080247
v -0.383040 0.167229 1.080247
v -0.316512 0.167229 1.080248
v -0.255049 0.141769 1.080247
v -0.208007 0.094727 1.080247
v -0.182548 0.033263 1.080247
v -0.349776 -0.000000 1.483763
vn 0.1536 -0.1892 -0.9698
vn 0.3033 -0.1914 -0.9334
vn 0.2587 -0.5467 -0.7963
vn 0.1314 -0.5420 -0.8300
vn -0.1534 0.1965 0.9684
vn -0.3028 0.1989 0.9320
vn -0.2550 0.5647 0.7849
vn -0.1296 0.5600 0.8183
vn 0.1536 0.1892 -0.9698
vn 0.3033 0.1914 -0.9334
vn -0.1296 -0.5600 0.8183
vn -0.2550 -0.5647 0.7849
vn -0.3028 -0.1989 0.9320
vn -0.1534 -0.1965 0.9684
vn 0.1314 0.5420 -0.8300
vn 0.2587 0.5467 -0.7963
vn -0.0855 -0.8374 0.5398
vn -0.1674 -0.8405 0.5153
vn 0.0897 0.8192 -0.5665
vn 0.1757 0.8225 -0.5409
vn -0.0279 -0.9839 0.1761
vn -0.0544 -0.9843 0.1675
vn 0.0338 0.9763 -0.2136
vn 0.0660 0.9769 -0.2032
vn 0.0338 -0.9763 -0.2136
vn 0.0660 -0.9769 -0.2032
vn -0.0279 0.9839 0.1761
vn -0.0544 0.9843 0.1675
vn 0.0897 -0.8192 -0.5665
vn 0.1757 -0.8225 -0.5409
vn -0.0855 0.8374 0.5398
vn -0.1674 0.8405 0.5153
vn -0.3185 0.8405 0.4383
vn -0.1035 0.9843 0.1425
vn 0.4921 -0.5467 -0.6774
vn 0.3343 -0.8225 -0.4601
vn -0.4851 0.5647 0.6677
vn 0.5769 -0.1914 -0.7940
vn -0.5760 0.1989 0.7928
vn 0.5769 0.1914 -0.7940
vn -0.4851 -0.5647 0.6677
vn -0.5760 -0.1989 0.7928
vn 0.4921 0.5467 -0.6774
vn -0.3185 -0.8405 0.4383
vn 0.3343 0.8225 -0.4601
vn -0.1035 -0.9843 0.1425
vn 0.1256 0.9769 -0.1729
vn 0.1256 -0.9769 -0.1729
vn 0.1729 0.9769 -0.1256
vn 0.4601 0.8225 -0.3343
vn 0.1729 -0.9769 -0.1256
vn -0.1425 -0.9843 0.1035
vn -0.1425 0.9843 0.1035
vn 0.4601 -0.8225 -0.3343
vn -0.4383 0.8405 0.3185
vn 0.6774 -0.5467 -0.4921
vn -0.6677 0.5647 0.4851
vn 0.7940 -0.1914 -0.5769
vn -0.7928 0.1989 0.5760
vn 0.7940 0.1914 -0.5769
vn -0.6677 -0.5647 0.4851
vn -0.7928 -0.1989 0.5760
vn 0.6774 0.5467 -0.4921
vn -0.4383 -0.8405 0.3185
vn -0.7849 -0.5647 0.2550
vn -0.9320 -0.1989 0.3028
vn -0.9320 0.1989 0.3028
vn 0.7963 0.5467 -0.2587
vn 0.9334 0.1914 -0.3033
vn -0.5153 -0.8405 0.1674
vn 0.5409 0.8225 -0.1757
vn -0.1675 -0.9843 0.0544
vn 0.2032 0.9769 -0.0660
vn 0.2032 -0.9769 -0.0660
vn -0.1675 0.9843 0.0544
vn 0.5409 -0.8225 -0.1757
vn -0.5153 0.8405 0.1674
vn 0.7963 -0.5467 -0.2587
vn -0.7849 0.5647 0.2550
vn 0.9334 -0.1914 -0.3033
vn 0.8325 -0.5500 -0.0653
vn 0.5615 -0.8262 -0.0446
vn -0.8266 0.5590 0.0655
vn -0.5482 0.8352 0.0430
vn 0.9783 -0.1927 -0.0763
vn -0.9774 0.1964 0.0776
vn 0.9783 0.1927 -0.0763
vn -0.8266 -0.5590 0.0655
vn -0.9774 -0.1964 0.0776
vn 0.8325 0.5500 -0.0653
vn -0.5482 -0.8352 0.0430
vn 0.5615 0.8262 -0.0446
vn -0.1856 -0.9825 0.0139
vn 0.2044 0.9787 -0.0169
vn 0.2044 -0.9787 -0.0169
vn -0.1856 0.9825 0.0139
vn 0.1282 0.6445 -0.7537
vn 0.3651 0.5464 -0.7537
vn 0.1282 -0.6445 -0.7537
vn -0.1282 -0.6445 -0.7537
vn -0.1282 0.6445 -0.7537
vn 0.3651 -0.5464 -0.7537
vn -0.3651 0.5464 -0.7537
vn 0.5464 -0.3651 -0.7537
vn -0.5464 0.3651 -0.7537
vn 0.6445 -0.1282 -0.7537
vn -0.6445 0.1282 -0.7537
vn 0.6445 0.1282 -0.7537
vn -0.5464 -0.3651 -0.7537
vn -0.6445 -0.1282 -0.7537
vn 0.5464 0.3651 -0.7537
vn -0.3651 -0.5464 -0.7537
vn -0.7154 -0.4780 -0.5096
vn -0.8439 -0.1679 -0.5096
vn -0.8439 0.1679 -0.5096
vn 0.7154 0.4780 -0.5096
vn 0.8439 0.1679 -0.5096
vn -0.4780 -0.7154 -0.5096
vn 0.4780 0.7154 -0.5096
vn -0.1679 -0.8439 -0.5096
vn 0.1679 0.8439 -0.5096
vn 0.1679 -0.8439 -0.5096
vn -0.1679 0.8439 -0.5096
vn 0.4780 -0.7154 -0.5096
vn -0.4780 0.7154 -0.5096
vn 0.7154 -0.4780 -0.5096
vn -0.7154 0.4780 -0.5096
vn 0.8439 -0.1679 -0.5096
vn 0.0000 0.0000 1.0000
vn -0.1536 -0.1892 -0.9698
vn -0.1314 -0.5420 -0.8300
vn -0.2587 -0.5467 -0.7963
vn -0.3033 -0.1914 -0.9334
vn 0.1534 0.1965 0.9684
vn 0.1296 0.5600 0.8183
vn 0.2550 0.5647 0.7849
vn 0.3028 0.1989 0.9320
vn -0.1536 0.1892 -0.9698
vn -0.3033 0.1914 -0.9334
vn 0.1296 -0.5600 0.8183
vn 0.1534 -0.1965 0.9684
vn 0.3028 -0.1989 0.9320
vn 0.2550 -0.5647 0.7849
vn -0.1314 0.5420 -0.8300
vn -0.2587 0.5467 -0.7963
vn 0.0855 -0.8374 0.5398
vn 0.1674 -0.8405 0.5153
vn -0.0897 0.8192 -0.5665
vn -0.1757 0.8225 -0.5409
vn 0.0279 -0.9839 0.1761
vn 0.0544 -0.9843 0.1675
vn -0.0338 0.9763 -0.2136
vn -0.0660 0.9769 -0.2032
vn -0.0338 -0.9763 -0.2136
vn -0.0660 -0.9769 -0.2032
vn 0.0279 0.9839 0.1761
vn 0.0544 0.9843 0.1675
vn -0.0897 -0.8192 -0.5665
vn -0.1757 -0.8225 -0.5409
vn 0.0855 0.8374 0.5398
vn 0.1674 0.8405 0.5153
vn 0.1035 0.9843 0.1425
vn 0.3185 0.8405 0.4383
vn -0.3343 -0.8225 -0.4601
vn -0.4921 -0.5467 -0.6774
vn 0.4851 0.5647 0.6677
vn -0.5769 -0.1914 -0.7940
vn 0.5760 0.1989 0.7928
vn -0.5769 0.1914 -0.7940
vn 0.5760 -0.1989 0.7928
vn 0.4851 -0.5647 0.6677
vn -0.4921 0.5467 -0.6774
vn 0.3185 -0.8405 0.4383
vn -0.3343 0.8225 -0.4601
vn 0.1035 -0.9843 0.1425
vn -0.1256 0.9769 -0.1729
vn -0.1256 -0.9769 -0.1729
vn -0.4601 0.8225 -0.3343
vn -0.1729 0.9769 -0.1256
vn 0.1425 -0.9843 0.1035
vn -0.1729 -0.9769 -0.1256
vn 0.1425 0.9843 0.1035
vn -0.4601 -0.8225 -0.3343
vn 0.4383 0.8405 0.3185
vn -0.6774 -0.5467 -0.4921
vn 0.6677 0.5647 0.4851
vn -0.7940 -0.1914 -0.5769
vn 0.7928 0.1989 0.5760
vn -0.7940 0.1914 -0.5769
vn 0.7928 -0.1989 0.5760
vn 0.6677 -0.5647 0.4851
vn -0.6774 0.5467 -0.4921
vn 0.4383 -0.8405 0.3185
vn 0.9320 -0.1989 0.3028
vn 0.7849 -0.5647 0.2550
vn 0.9320 0.1989 0.3028
vn -0.9334 0.1914 -0.3033
vn -0.7963 0.5467 -0.2587
vn 0.5153 -0.8405 0.1674
vn -0.5409 0.8225 -0.1757
vn 0.1675 -0.9843 0.0544
vn -0.2032 0.9769 -0.0660
vn -0.2032 -0.9769 -0.0660
vn 0.1675 0.9843 0.0544
vn -0.5409 -0.8225 -0.1757
vn 0.5153 0.8405 0.1674
vn -0.7963 -0.5467 -0.2587
vn 0.7849 0.5647 0.2550
vn -0.9334 -0.1914 -0.3033
vn -0.5615 -0.8262 -0.0446
vn -0.8325 -0.5500 -0.0653
vn 0.5482 0.8352 0.0430
vn 0.8266 0.5590 0.0655
vn -0.9783 -0.1927 -0.0763
vn 0.9774 0.1964 0.0776
vn -0.9783 0.1927 -0.0763
vn 0.9774 -0.1964 0.0776
vn 0.8266 -0.5590 0.0655
vn -0.8325 0.5500 -0.0653
vn 0.5482 -0.8352 0.0430
vn -0.5615 0.8262 -0.0446
vn 0.1856 -0.9825 0.0139
vn -0.2044 0.9787 -0.0169
vn -0.2044 -0.9787 -0.0169
vn 0.1856 0.9825 0.0139
usemtl None
s 1
f 8//1 24//2 23//3 7//4
f 16//5 32//6 31//7 15//8
f 9//9 25//10 24//2 8//1
f 2//11 18//12 17//13 1//14
f 1//14 17//13 32//6 16//5
f 10//15 26//16 25//10 9//9
f 3//17 19//18 18//12 2//11
f 11//19 27//20 26//16 10//15
f 4//21 20//22 19//18 3//17
f 12//23 28//24 27//20 11//19
f 5//25 21//26 20//22 4//21
f 13//27 29//28 28//24 12//23
f 6//29 22//30 21//26 5//25
f 14//31 30//32 29//28 13//27
f 7//4 23//3 22//30 6//29
f 15//8 31//7 30//32 14//31
f 30//32 46//33 45//34 29//28
f 23//3 39//35 38//36 22//30
f 31//7 47//37 46//33 30//32
f 24//2 40//38 39//35 23//3
f 32//6 48//39 47//37 31//7
f 25//10 41//40 40//38 24//2
f 18//12 34//41 33//42 17//13
f 17//13 33//42 48//39 32//6
f 26//16 42//43 41//40 25//10
f 19//18 35//44 34//41 18//12
f 27//20 43//45 42//43 26//16
f 20//22 36//46 35//44 19//18
f 28//24 44//47 43//45 27//20
f 21//26 37//48 36//46 20//22
f 29//28 45//34 44//47 28//24
f 22//30 38//36 37//48 21//26
f 44//47 60//49 59//50 43//45
f 37//48 53//51 52//52 36//46
f 45//34 61//53 60//49 44//47
f 38//36 54//54 53//51 37//48
f 46//33 62//55 61//53 45//34
f 39//35 55//56 54//54 38//36
f 47//37 63//57 62//55 46//33
f 40//38 56//58 55//56 39//35
f 48//39 64//59 63//57 47//37
f 41//40 57//60 56//58 40//38
f 34//41 50//61 49//62 33//42
f 33//42 49//62 64//59 48//39
f 42//43 58//63 57//60 41//40
f 35//44 51//64 50//61 34//41
f 43//45 59//50 58//63 42//43
f 36//46 52//52 51//64 35//44
f 50//61 66//65 65//66 49//62
f 49//62 65//66 80//67 64//59
f 58//63 74//68 73//69 57//60
f 51//64 67//70 66//65 50//61
f 59//50 75//71 74//68 58//63
f 52//52 68//72 67//70 51//64
f 60//49 76//73 75//71 59//50
f 53//51 69//74 68//72 52//52
f 61//53 77//75 76//73 60//49
f 54//54 70//76 69//74 53//51
f 62//55 78//77 77//75 61//53
f 55//56 71//78 70//76 54//54
f 63//57 79//79 78//77 62//55
f 56//58 72//80 71//78 55//56
f 64//59 80//67 79//79 63//57
f 57//60 73//69 72//80 56//58
f 71//78 87//81 86//82 70//76
f 79//79 95//83 94//84 78//77
f 72//80 88//85 87//81 71//78
f 80//67 96//86 95//83 79//79
f 73//69 89//87 88//85 72//80
f 66//65 82//88 81//89 65//66
f 65//66 81//89 96//86 80//67
f 74//68 90//90 89//87 73//69
f 67//70 83//91 82//88 66//65
f 75//71 91//92 90//90 74//68
f 68//72 84//93 83//91 67//70
f 76//73 92//94 91//92 75//71
f 69//74 85//95 84//93 68//72
f 77//75 93//96 92//94 76//73
f 70//76 86//82 85//95 69//74
f 78//77 94//84 93//96 77//75
f 92//94 108//97 107//98 91//92
f 85//95 101//99 100//100 84//93
f 93//96 109//101 108//97 92//94
f 86//82 102//102 101//99 85//95
f 94//84 110//103 109//101 93//96
f 87//81 103//104 102//102 86//82
f 95//83 111//105 110//103 94//84
f 88//85 104//106 103//104 87//81
f 96//86 112//107 111//105 95//83
f 89//87 105//108 104//106 88//85
f 82//88 98//109 97//110 81//89
f 81//89 97//110 112//107 96//86
f 90//90 106//111 105//108 89//87
f 83//91 99//112 98//109 82//88
f 91//92 107//98 106//111 90//90
f 84//93 100//100 99//112 83//91
f 98//109 114//113 113//114 97//110
f 97//110 113//114 128//115 112//107
f 106//111 122//116 121//117 105//108
f 99//112 115//118 114//113 98//109
f 107//98 123//119 122//116 106//111
f 100//100 116//120 115//118 99//112
f 108//97 124//121 123//119 107//98
f 101//99 117//122 116//120 100//100
f 109//101 125//123 124//121 108//97
f 102//102 118//124 117//122 101//99
f 110//103 126//125 125//123 109//101
f 103//104 119//126 118//124 102//102
f 111//105 127//127 126//125 110//103
f 104//106 120//128 119//126 103//104
f 112//107 128//115 127//127 111//105
f 105//108 121//117 120//128 104//106
f 119//126 129//129 118//124
f 127//127 129//129 126//125
f 120//128 129//129 119//126
f 128//115 129//129 127//127
f 121//117 129//129 120//128
f 114//113 129//129 113//114
f 113//114 129//129 128//115
f 122//116 129//129 121//117
f 115//118 129//129 114//113
f 123//119 129//129 122//116
f 116//120 129//129 115//118
f 124//121 129//129 123//119
f 117//122 129//129 116//120
f 125//123 129//129 124//121
f 118//124 129//129 117//122
f 126//125 129//129 125//123
f 137//130 136//131 152//132 153//133
f 145//134 144//135 160//136 161//137
f 138//138 137//130 153//133 154//139
f 131//140 130//141 146//142 147//143
f 130//141 145//134 161//137 146//142
f 139//144 138//138 154//139 155//145
f 132//146 131//140 147//143 148//147
f 140//148 139//144 155//145 156//149
f 133//150 132//146 148//147 149//151
f 141//152 140//148 156//149 157//153
f 134//154 133//150 149//151 150//155
f 142//156 141//152 157//153 158//157
f 135//158 134//154 150//155 151//159
f 143//160 142//156 158//157 159//161
f 136//131 135//158 151//159 152//132
f 144//135 143//160 159//161 160//136
f 159//161 158//157 174//162 175//163
f 152//132 151//159 167//164 168//165
f 160//136 159//161 175//163 176//166
f 153//133 152//132 168//165 169//167
f 161//137 160//136 176//166 177//168
f 154//139 153//133 169//167 170//169
f 147//143 146//142 162//170 163//171
f 146//142 161//137 177//168 162//170
f 155//145 154//139 170//169 171//172
f 148//147 147//143 163//171 164//173
f 156//149 155//145 171//172 172//174
f 149//151 148//147 164//173 165//175
f 157//153 156//149 172//174 173//176
f 150//155 149//151 165//175 166//177
f 158//157 157//153 173//176 174//162
f 151//159 150//155 166//177 167//164
f 173//176 172//174 188//178 189//179
f 166//177 165//175 181//180 182//181
f 174//162 173//176 189//179 190//182
f 167//164 166//177 182//181 183//183
f 175//163 174//162 190//182 191//184
f 168//165 167//164 183//183 184//185
f 176//166 175//163 191//184 192//186
f 169//167 168//165 184//185 185//187
f 177//168 176//166 192//186 193//188
f 170//169 169//167 185//187 186//189
f 163//171 162//170 178//190 179//191
f 162//170 177//168 193//188 178//190
f 171//172 170//169 186//189 187//192
f 164//173 163//171 179//191 180//193
f 172//174 171//172 187//192 188//178
f 165//175 164//173 180//193 181//180
f 179//191 178//190 194//194 195//195
f 178//190 193//188 209//196 194//194
f 187//192 186//189 202//197 203//198
f 180//193 179//191 195//195 196//199
f 188//178 187//192 203//198 204//200
f 181//180 180//193 196//199 197//201
f 189//179 188//178 204//200 205//202
f 182//181 181//180 197//201 198//203
f 190//182 189//179 205//202 206//204
f 183//183 182//181 198//203 199//205
f 191//184 190//182 206//204 207//206
f 184//185 183//183 199//205 200//207
f 192//186 191//184 207//206 208//208
f 185//187 184//185 200//207 201//209
f 193//188 192//186 208//208 209//196
f 186//189 185//187 201//209 202//197
f 200//207 199//205 215//210 216//211
f 208//208 207//206 223//212 224//213
f 201//209 200//207 216//211 217//214
f 209//196 208//208 224//213 225//215
f 202//197 201//209 217//214 218//216
f 195//195 194//194 210//217 211//218
f 194//194 209//196 225//215 210//217
f 203//198 202//197 218//216 219//219
f 196//199 195//195 211//218 212//220
f 204//200 203//198 219//219 220//221
f 197//201 196//199 212//220 213//222
f 205//202 204//200 220//221 221//223
f 198//203 197//201 213//222 214//224
f 206//204 205//202 221//223 222//225
f 199//205 198//203 214//224 215//210
f 207//206 206//204 222//225 223//212
f 221//223 220//221 236//103 237//101
f 214//224 213//222 229//99 230//100
f 222//225 221//223 237//101 238//97
f 215//210 214//224 230//100 231//112
f 223//212 222//225 238//97 239//98
f 216//211 215//210 231//112 232//109
f 224//213 223//212 239//98 240//111
f 217//214 216//211 232//109 233//110
f 225//215 224//213 240//111 241//108
f 218//216 217//214 233//110 234//107
f 211//218 210//217 226//106 227//104
f 210//217 225//215 241//108 226//106
f 219//219 218//216 234//107 235//105
f 212//220 211//218 227//104 228//102
f 220//221 219//219 235//105 236//103
f 213//222 212//220 228//102 229//99
f 227//104 226//106 242//128 243//126
f 226//106 241//108 257//117 242//128
f 235//105 234//107 250//115 251//127
f 228//102 227//104 243//126 244//124
f 236//103 235//105 251//127 252//125
f 229//99 228//102 244//124 245//122
f 237//101 236//103 252//125 253//123
f 230//100 229//99 245//122 246//120
f 238//97 237//101 253//123 254//121
f 231//112 230//100 246//120 247//118
f 239//98 238//97 254//121 255//119
f 232//109 231//112 247//118 248//113
f 240//111 239//98 255//119 256//116
f 233//110 232//109 248//113 249//114
f 241//108 240//111 256//116 257//117
f 234//107 233//110 249//114 250//115
f 248//113 247//118 258//129
f 256//116 255//119 258//129
f 249//114 248//113 258//129
f 257//117 256//116 258//129
f 250//115 249//114 258//129
f 243//126 242//128 258//129
f 242//128 257//117 258//129
f 251//127 250//115 258//129
f 244//124 243//126 258//129
f 252//125 251//127 258//129
f 245//122 244//124 258//129
f 253//123 252//125 258//129
f 246//120 245//122 258//129
f 254//121 253//123 258//129
f 247//118 246//120 258//129
f 255//119 254//121 258//129
