# Blender v2.79 (sub 0) OBJ File: 'race.blend'
# www.blender.org
mtllib race.mtl
o Plane.015
v 7.599998 3.870841 -39.822651
v 7.599991 3.870841 -43.822655
v 30.046600 3.870841 -39.822651
v 30.046600 3.870841 -43.822655
v 7.599998 3.407841 -39.822651
v 7.599991 3.407841 -43.822655
v 30.046600 3.407841 -39.822651
v 30.046600 3.407841 -43.822655
vn 0.0000 1.0000 0.0000
vn 0.0000 -1.0000 0.0000
vn -1.0000 0.0000 0.0000
vn 1.0000 0.0000 0.0000
vn 0.0000 0.0000 -1.0000
vn 0.0000 0.0000 1.0000
usemtl None
s off
f 1//1 3//1 4//1 2//1
f 5//2 6//2 8//2 7//2
f 1//3 2//3 6//3 5//3
f 4//4 3//4 7//4 8//4
f 2//5 4//5 8//5 6//5
f 3//6 1//6 5//6 7//6
o Plane.014
v 5.932976 3.870841 -39.968494
v 6.627563 3.870841 -43.907730
v 7.599998 3.870841 -39.822651
v 7.599991 3.870841 -43.822655
v 5.932976 3.407841 -39.968494
v 6.627563 3.407841 -43.907730
v 7.599998 3.407841 -39.822651
v 7.599991 3.407841 -43.822655
vn 0.0000 1.0000 0.0000
vn 0.0000 -1.0000 0.0000
vn -0.9848 0.0000 -0.1736
vn 1.0000 0.0000 -0.0000
vn 0.0872 0.0000 -0.9962
vn -0.0872 0.0000 0.9962
usemtl None
s off
f 9//7 11//7 12//7 10//7
f 13//8 14//8 16//8 15//8
f 9//9 10//9 14//9 13//9
f 12//10 11//10 15//10 16//10
f 10//11 12//11 16//11 14//11
f 11//12 9//12 13//12 15//12
o Plane.013
v 4.316605 3.870841 -40.401600
v 5.684685 3.870841 -44.160378
v 5.932976 3.870841 -39.968494
v 6.627563 3.870841 -43.907730
v 4.316605 3.407855 -40.401600
v 5.684685 3.407855 -44.160378
v 5.932976 3.407841 -39.968494
v 6.627563 3.407855 -43.907730
vn 0.0000 1.0000 -0.0000
vn -0.0000 -1.0000 -0.0000
vn -0.9397 0.0000 -0.3420
vn 0.9848 0.0000 0.1736
vn 0.2588 0.0000 -0.9659
vn -0.2588 0.0000 0.9659
usemtl None
s off
f 17//13 19//13 20//13 18//13
f 21//14 22//14 24//14 23//14
f 17//15 18//15 22//15 21//15
f 20//16 19//16 23//16 24//16
f 18//17 20//17 24//17 22//17
f 19//18 17//18 21//18 23//18
o Plane.012
v 2.800003 3.870841 -41.108807
v 4.799995 3.870841 -44.572914
v 4.316605 3.870841 -40.401600
v 5.684685 3.870841 -44.160378
v 2.800003 3.407841 -41.108807
v 4.799995 3.407841 -44.572914
v 4.316605 3.407841 -40.401600
v 5.684685 3.407841 -44.160378
vn 0.0000 1.0000 0.0000
vn 0.0000 -1.0000 0.0000
vn -0.8660 0.0000 -0.5000
vn 0.9397 0.0000 0.3420
vn 0.4226 0.0000 -0.9063
vn -0.4226 0.0000 0.9063
usemtl None
s off
f 25//19 27//19 28//19 26//19
f 29//20 30//20 32//20 31//20
f 25//21 26//21 30//21 29//21
f 28//22 27//22 31//22 32//22
f 26//23 28//23 32//23 30//23
f 27//24 25//24 29//24 31//24
o Plane.011
v 1.429237 3.870841 -42.068623
v 4.000389 3.870841 -45.132805
v 2.800003 3.870841 -41.108807
v 4.799995 3.870841 -44.572914
v 1.429237 3.407855 -42.068623
v 4.000389 3.407841 -45.132805
v 2.800003 3.407841 -41.108807
v 4.799995 3.407855 -44.572914
vn 0.0000 1.0000 0.0000
vn 0.0000 -1.0000 -0.0000
vn -0.7660 0.0000 -0.6428
vn 0.8660 0.0000 0.5000
vn 0.5736 0.0000 -0.8192
vn -0.5736 0.0000 0.8192
usemtl None
s off
f 33//25 35//25 36//25 34//25
f 37//26 38//26 40//26 39//26
f 33//27 34//27 38//27 37//27
f 36//28 35//28 39//28 40//28
f 34//29 36//29 40//29 38//29
f 35//30 33//30 37//30 39//30
o Plane.010
v 0.245972 3.870841 -43.251884
v 3.310150 3.870841 -45.823040
v 1.429237 3.870841 -42.068623
v 4.000389 3.870841 -45.132805
v 0.245972 3.407841 -43.251884
v 3.310150 3.407841 -45.823040
v 1.429237 3.407841 -42.068623
v 4.000389 3.407841 -45.132805
vn 0.0000 1.0000 0.0000
vn 0.0000 -1.0000 0.0000
vn -0.6428 0.0000 -0.7660
vn 0.7660 0.0000 0.6428
vn 0.7071 0.0000 -0.7071
vn -0.7071 0.0000 0.7071
usemtl None
s off
f 41//31 43//31 44//31 42//31
f 45//32 46//32 48//32 47//32
f 41//33 42//33 46//33 45//33
f 44//34 43//34 47//34 48//34
f 42//35 44//35 48//35 46//35
f 43//36 41//36 45//36 47//36
o Plane.009
v -0.713844 3.870841 -44.622646
v 2.750259 3.870841 -46.622650
v 0.245972 3.870841 -43.251884
v 3.310150 3.870841 -45.823040
v -0.713844 3.407841 -44.622646
v 2.750259 3.407841 -46.622650
v 0.245972 3.407841 -43.251884
v 3.310150 3.407855 -45.823040
vn 0.0000 1.0000 0.0000
vn 0.0000 -1.0000 0.0000
vn -0.5000 0.0000 -0.8660
vn 0.6428 0.0000 0.7660
vn 0.8192 0.0000 -0.5736
vn -0.8192 0.0000 0.5736
usemtl None
s off
f 49//37 51//37 52//37 50//37
f 53//38 54//38 56//38 55//38
f 49//39 50//39 54//39 53//39
f 52//40 51//40 55//40 56//40
f 50//41 52//41 56//41 54//41
f 51//42 49//42 53//42 55//42
o Plane.008
v -1.421051 3.870841 -46.139252
v 2.337723 3.870841 -47.507336
v -0.713844 3.870841 -44.622646
v 2.750259 3.870841 -46.622650
v -1.421051 3.407855 -46.139252
v 2.337723 3.407841 -47.507336
v -0.713844 3.407841 -44.622646
v 2.750259 3.407841 -46.622650
vn 0.0000 1.0000 0.0000
vn -0.0000 -1.0000 -0.0000
vn -0.3420 0.0000 -0.9397
vn 0.5000 0.0000 0.8660
vn 0.9063 0.0000 -0.4226
vn -0.9063 0.0000 0.4226
usemtl None
s off
f 57//43 59//43 60//43 58//43
f 61//44 62//44 64//44 63//44
f 57//45 58//45 62//45 61//45
f 60//46 59//46 63//46 64//46
f 58//47 60//47 64//47 62//47
f 59//48 57//48 61//48 63//48
o Plane.007
v -1.854156 3.870841 -47.755623
v 2.085075 3.870841 -48.450218
v -1.421051 3.870841 -46.139252
v 2.337723 3.870841 -47.507336
v -1.854156 3.407841 -47.755623
v 2.085075 3.407841 -48.450218
v -1.421051 3.407841 -46.139252
v 2.337723 3.407841 -47.507336
vn 0.0000 1.0000 0.0000
vn 0.0000 -1.0000 0.0000
vn -0.1736 0.0000 -0.9848
vn 0.3420 0.0000 0.9397
vn 0.9659 0.0000 -0.2588
vn -0.9659 0.0000 0.2588
usemtl None
s off
f 65//49 67//49 68//49 66//49
f 69//50 70//50 72//50 71//50
f 65//51 66//51 70//51 69//51
f 68//52 67//52 71//52 72//52
f 66//53 68//53 72//53 70//53
f 67//54 65//54 69//54 71//54
o Plane.006
v -2.000000 3.870841 -49.422646
v 2.000000 3.870841 -49.422646
v -1.854156 3.870841 -47.755623
v 2.085075 3.870841 -48.450218
v -2.000000 3.407841 -49.422646
v 2.000000 3.407855 -49.422646
v -1.854156 3.407855 -47.755623
v 2.085075 3.407855 -48.450218
vn 0.0000 1.0000 0.0000
vn 0.0000 -1.0000 0.0000
vn -0.0000 0.0000 -1.0000
vn 0.1736 0.0000 0.9848
vn 0.9962 0.0000 -0.0872
vn -0.9962 0.0000 0.0872
usemtl None
s off
f 73//55 75//55 76//55 74//55
f 77//56 78//56 80//56 79//56
f 73//57 74//57 78//57 77//57
f 76//58 75//58 79//58 80//58
f 74//59 76//59 80//59 78//59
f 75//60 73//60 77//60 79//60
o Plane.005
v -2.000000 3.870841 -58.488522
v 2.000000 3.870841 -58.488522
v -2.000000 3.870841 -49.422646
v 2.000000 3.870841 -49.422646
v -2.000000 3.407841 -58.488522
v 2.000000 3.407841 -58.488522
v -2.000000 3.407841 -49.422646
v 2.000000 3.407841 -49.422646
vn 0.0000 1.0000 0.0000
vn 0.0000 -1.0000 0.0000
vn 0.0000 0.0000 -1.0000
vn 0.0000 0.0000 1.0000
vn -1.0000 0.0000 0.0000
vn 1.0000 0.0000 0.0000
usemtl None
s off
f 81//61 83//61 84//61 82//61
f 85//62 86//62 88//62 87//62
f 81//63 82//63 86//63 85//63
f 84//64 83//64 87//64 88//64
f 83//65 81//65 85//65 87//65
f 82//66 84//66 88//66 86//66
o Plane.004
v -2.000000 -3.398235 -83.162659
v 2.000000 -3.398235 -83.162659
v -2.000000 3.870841 -58.488522
v 2.000000 3.870841 -58.488522
v -2.000000 -3.842357 -83.031830
v 2.000000 -3.842357 -83.031830
v -2.000000 3.426719 -58.357693
v 2.000000 3.426719 -58.357693
vn 0.0000 0.9592 -0.2826
vn 0.0000 -0.9592 0.2826
vn 0.0000 -0.2826 -0.9592
vn 0.0000 0.2826 0.9592
vn -1.0000 0.0000 0.0000
vn 1.0000 0.0000 0.0000
usemtl None
s off
f 89//67 91//67 92//67 90//67
f 93//68 94//68 96//68 95//68
f 89//69 90//69 94//69 93//69
f 92//70 91//70 95//70 96//70
f 91//71 89//71 93//71 95//71
f 90//72 92//72 96//72 94//72
o Plane.003
v -2.000000 -3.398235 -100.605766
v 2.000000 -3.398235 -100.605766
v -2.000000 -3.398235 -83.162659
v 2.000000 -3.398235 -83.162659
v -2.000000 -3.861235 -100.605766
v 2.000000 -3.861235 -100.605766
v -2.000000 -3.861235 -83.162659
v 2.000000 -3.861235 -83.162659
vn 0.0000 1.0000 0.0000
vn 0.0000 -1.0000 0.0000
vn 0.0000 0.0000 -1.0000
vn 0.0000 0.0000 1.0000
vn -1.0000 0.0000 0.0000
vn 1.0000 0.0000 0.0000
usemtl None
s off
f 97//73 99//73 100//73 98//73
f 101//74 102//74 104//74 103//74
f 97//75 98//75 102//75 101//75
f 100//76 99//76 103//76 104//76
f 99//77 97//77 101//77 103//77
f 98//78 100//78 104//78 102//78
o Plane.002
v -2.000000 -3.398235 -104.605766
v 2.000000 -3.398235 -104.605766
v -2.000000 -3.398235 -100.605766
v 2.000000 -3.398235 -100.605766
v -2.000000 -3.861235 -104.605766
v 2.000000 -3.861235 -104.605766
v -2.000000 -3.861235 -100.605766
v 2.000000 -3.861235 -100.605766
vn 0.0000 1.0000 0.0000
vn 0.0000 -1.0000 0.0000
vn -1.0000 0.0000 0.0000
vn 0.0000 0.0000 -1.0000
vn 1.0000 0.0000 0.0000
vn 0.0000 0.0000 1.0000
usemtl None
s off
f 105//79 107//79 108//79 106//79
f 109//80 110//80 112//80 111//80
f 107//81 105//81 109//81 111//81
f 105//82 106//82 110//82 109//82
f 106//83 108//83 112//83 110//83
f 108//84 107//84 111//84 112//84
